<svg width="44" height="44" viewBox="0 0 44 44" fill="none" xmlns="http://www.w3.org/2000/svg">
<path fill-rule="evenodd" clip-rule="evenodd" d="M14.7105 13H12V14.25H14.2372L17.0495 24.2426L17.1778 24.6982H17.6511H29.0146H29.477L29.6122 24.256L32.1043 16.107L32.3513 15.2993H31.5066H17.6511V16.5493H30.6619L28.5521 23.4482H18.1245L15.3122 13.4557L15.1839 13H14.7105ZM19.4286 26.8214C18.827 26.8214 18.3393 27.3091 18.3393 27.9107C18.3393 28.5123 18.827 29 19.4286 29C20.0302 29 20.5179 28.5123 20.5179 27.9107C20.5179 27.3091 20.0302 26.8214 19.4286 26.8214ZM17.0893 27.9107C17.0893 26.6188 18.1366 25.5714 19.4286 25.5714C20.7205 25.5714 21.7679 26.6188 21.7679 27.9107C21.7679 29.2027 20.7205 30.25 19.4286 30.25C18.1366 30.25 17.0893 29.2027 17.0893 27.9107ZM27.4286 26.8214C26.827 26.8214 26.3393 27.3091 26.3393 27.9107C26.3393 28.5123 26.827 29 27.4286 29C28.0302 29 28.5179 28.5123 28.5179 27.9107C28.5179 27.3091 28.0302 26.8214 27.4286 26.8214ZM25.0893 27.9107C25.0893 26.6188 26.1366 25.5714 27.4286 25.5714C28.7205 25.5714 29.7679 26.6188 29.7679 27.9107C29.7679 29.2027 28.7205 30.25 27.4286 30.25C26.1366 30.25 25.0893 29.2027 25.0893 27.9107Z" fill="#161412"/>
</svg>
