<svg width="16" height="17" viewBox="0 0 16 17" fill="none" xmlns="http://www.w3.org/2000/svg">
    <path fill-rule="evenodd" clip-rule="evenodd" d="M9.41467 8.22536L12.9502 11.8605C13.3407 12.262 13.3407 12.913 12.9502 13.3145C12.5597 13.7161 11.9265 13.7161 11.536 13.3145L8.00045 9.67941L4.46492 13.3145C4.07439 13.7161 3.44123 13.7161 3.05071 13.3145C2.66018 12.913 2.66018 12.262 3.05071 11.8605L6.58624 8.22536L3.05071 4.59023C2.66018 4.18871 2.66018 3.53771 3.05071 3.13618C3.44123 2.73466 4.07439 2.73466 4.46492 3.13618L8.00045 6.77131L11.536 3.13618C11.9265 2.73466 12.5597 2.73466 12.9502 3.13618C13.3407 3.53771 13.3407 4.18871 12.9502 4.59023L9.41467 8.22536Z" fill="#868E98" />
</svg>
